<?xml version="1.0" encoding="UTF-8" standalone="no"?>
<!DOCTYPE svg PUBLIC "-//W3C//DTD SVG 1.1//EN" "http://www.w3.org/Graphics/SVG/1.1/DTD/svg11.dtd">
<svg width="100%" height="100%" viewBox="0 0 2048 2048" version="1.1" xmlns="http://www.w3.org/2000/svg" xmlns:xlink="http://www.w3.org/1999/xlink" xml:space="preserve" xmlns:serif="http://www.serif.com/" style="fill-rule:evenodd;clip-rule:evenodd;stroke-linecap:round;stroke-linejoin:round;stroke-miterlimit:1.5;">
    <g id="Logo">
        <g transform="matrix(2.007859,0,0,1,-785.121807,0)">
            <path d="M1288,0L1288,358.225C1105.277,358.225 957.15,656.078 957.15,1023.499C957.15,1390.919 1105.277,1688.773 1288,1688.773L1288,2046.997C1006.887,2046.997 779,1588.761 779,1023.499C779,458.236 1006.887,0 1288,0Z" style="fill:rgb(153,149,177);stroke:black;stroke-opacity:0;stroke-width:0.63px;"/>
        </g>
        <g transform="matrix(1,0,0,1,0,2)">
            <circle cx="1801.899" cy="1021.899" r="177.899" style="fill:rgb(153,149,177);"/>
        </g>
        <path d="M779,0C607.69,210 600,424.853 600,519.853C600,519.853 246,1540 246,568C246,497 259,120.987 779,0Z" style="fill:rgb(153,149,177);stroke:black;stroke-opacity:0;stroke-width:1px;"/>
        <g transform="matrix(-1,0,-0,-1,846,2048)">
            <path d="M600,508C600,508 246,1540 246,568C246,497 259,120.987 779,0C607.69,210 600,413 600,508" style="fill:rgb(153,149,177);stroke:black;stroke-opacity:0;stroke-width:1px;"/>
        </g>
        <path d="M246,1540L600,1480L600,519.853L246,568L246,1540Z" style="fill:rgb(153,149,177);stroke:black;stroke-opacity:0;stroke-width:1px;"/>
    </g>
</svg>
